<?xml version="1.0" encoding="UTF-8" standalone="no"?>
<svg
   class="img-fluid"
   id="outputsvg"
   width="2260.9741"
   height="3109.6331"
   viewBox="0 0 22609.741 31096.33"
   version="1.1"
   sodipodi:docname="jam.svg"
   inkscape:version="1.3.2 (091e20e, 2023-11-25, custom)"
   inkscape:export-filename="jam.png"
   inkscape:export-xdpi="96"
   inkscape:export-ydpi="96"
   xmlns:inkscape="http://www.inkscape.org/namespaces/inkscape"
   xmlns:sodipodi="http://sodipodi.sourceforge.net/DTD/sodipodi-0.dtd"
   xmlns="http://www.w3.org/2000/svg"
   xmlns:svg="http://www.w3.org/2000/svg">
  <defs
     id="defs5">
    <rect
       x="36.759083"
       y="2138.1533"
       width="2392.4036"
       height="854.64868"
       id="rect5" />
  </defs>
  <sodipodi:namedview
     id="namedview5"
     pagecolor="#ffffff"
     bordercolor="#000000"
     borderopacity="0.25"
     inkscape:showpageshadow="2"
     inkscape:pageopacity="0.0"
     inkscape:pagecheckerboard="0"
     inkscape:deskcolor="#d1d1d1"
     inkscape:zoom="0.32644993"
     inkscape:cx="-70.454908"
     inkscape:cy="1395.3135"
     inkscape:window-width="3840"
     inkscape:window-height="2126"
     inkscape:window-x="-11"
     inkscape:window-y="-11"
     inkscape:window-maximized="1"
     inkscape:current-layer="outputsvg" />
  <g
     id="g6"
     transform="translate(1127.9867,1000.7625)">
    <g
       id="l2k1f3is8tneCeEVadF7nrz"
       fill="#000000">
      <g
         id="g1">
        <path
           id="puoNUkaQq"
           d="m 3748,20469 c -2,-7 -42,-15 -93,-19 -115,-10 -135,-15 -220,-58 -50,-25 -93,-58 -151,-116 -89,-90 -139,-172 -176,-288 l -23,-73 v -800 -800 l 23,-75 c 73,-233 244,-397 484,-462 80,-22 96,-23 508,-23 408,1 428,2 505,23 236,66 414,238 479,463 33,116 37,240 34,949 -4,684 -5,696 -27,774 -43,153 -126,281 -235,363 -118,88 -214,123 -341,123 -51,0 -65,3 -65,15 0,13 -45,15 -349,15 -252,0 -350,-3 -353,-11 z m 373,-669 h 319 v -685 -685 h -345 -345 v 684 c 0,708 0,702 38,690 8,-2 157,-4 333,-4 z" />
        <path
           id="pUbF4ClWt"
           d="m 6102,20465 c -7,-9 -31,-15 -55,-15 -31,0 -56,-9 -93,-32 -28,-18 -51,-37 -52,-41 -1,-4 -9,-15 -18,-24 -39,-40 -63,-93 -73,-167 -14,-98 -15,-2016 -1,-2133 12,-110 56,-183 147,-242 34,-22 73,-41 85,-41 13,0 39,-5 58,-10 57,-17 165,5 226,46 86,58 137,133 148,221 9,71 9,2093 0,2173 -5,49 -15,76 -45,121 -54,80 -117,122 -192,127 -37,3 -61,10 -64,18 -7,18 -54,17 -71,-1 z" />
        <path
           id="pfYOAyZUW"
           d="m 7833,20468 c 1,-9 -24,-15 -88,-19 -49,-4 -106,-12 -125,-18 -75,-23 -173,-85 -238,-149 -116,-115 -184,-254 -203,-416 -13,-115 -12,-1415 2,-1513 39,-289 227,-503 504,-573 75,-20 108,-21 512,-20 400,0 437,2 510,21 185,48 340,174 425,344 77,153 73,96 73,990 v 800 l -22,69 c -39,117 -92,204 -173,286 -120,122 -247,180 -391,180 -47,0 -70,4 -79,15 -11,13 -63,15 -361,15 -274,0 -348,-3 -346,-12 z m 707,-1353 v -685 h -345 -344 l -3,678 c -2,372 -2,680 0,685 2,4 158,7 348,7 h 344 z" />
        <path
           id="p1DfcrqQ6N"
           d="m 10204,20470 c -6,-6 -36,-15 -67,-20 -70,-11 -137,-55 -174,-113 -15,-23 -37,-80 -50,-127 l -23,-85 v -1010 c 0,-667 4,-1024 11,-1050 6,-22 15,-60 20,-85 5,-25 15,-50 22,-55 6,-6 20,-24 29,-40 9,-17 43,-48 75,-70 104,-73 268,-79 369,-13 48,31 104,85 104,100 0,6 7,16 15,22 8,6 19,31 24,56 5,25 14,63 20,85 7,26 11,383 11,1050 0,965 -1,1013 -20,1089 -20,82 -76,182 -108,193 -9,3 -27,15 -38,25 -13,12 -43,21 -79,25 -34,4 -59,11 -62,19 -6,16 -64,19 -79,4 z" />
        <path
           id="p1FcjlgGEo"
           d="m 13308,20469 c -2,-7 -47,-15 -108,-20 -91,-8 -115,-14 -185,-48 -179,-86 -303,-237 -356,-436 -21,-78 -22,-95 -22,-845 l -1,-765 23,-90 c 63,-242 242,-421 490,-487 69,-18 111,-20 436,-23 198,-1 403,2 455,6 175,17 293,69 419,185 82,76 139,165 179,280 l 27,79 v 805 c 0,899 4,845 -72,995 -104,207 -309,345 -510,345 -47,0 -65,4 -69,15 -5,13 -54,15 -354,15 -250,0 -349,-3 -352,-11 z m 692,-1354 v -685 h -345 -345 v 685 685 h 345 345 z" />
        <path
           id="pavUbpVHq"
           d="m 15670,20465 c -8,-9 -30,-15 -58,-15 -86,0 -170,-68 -227,-185 -20,-39 -20,-67 -20,-1150 v -1110 l 30,-60 c 84,-168 273,-233 457,-157 51,20 122,90 155,154 l 28,53 v 1125 1125 l -43,67 c -58,90 -115,129 -199,136 -44,3 -63,9 -63,18 0,19 -44,18 -60,-1 z" />
        <path
           id="pDrCpNcL9"
           d="m 17388,20469 c -2,-6 -44,-15 -93,-20 -50,-5 -106,-14 -125,-21 -74,-24 -168,-85 -236,-153 -79,-79 -134,-169 -173,-283 l -26,-77 v -795 -795 l 23,-75 c 71,-226 236,-396 447,-459 112,-33 220,-41 540,-41 445,1 539,15 687,101 142,83 249,219 307,387 l 26,77 v 800 800 l -26,76 c -76,219 -249,394 -439,445 -30,7 -84,14 -121,14 -47,0 -72,5 -83,15 -12,13 -66,15 -359,15 -243,0 -346,-3 -349,-11 z m 703,-1354 c 0,-374 -1,-682 -1,-685 0,-3 -155,-4 -345,-2 l -345,3 v 684 685 l 346,-2 346,-3 z" />
        <path
           id="pdkrefaL5"
           d="m 19757,20466 c -3,-8 -26,-15 -59,-18 -106,-9 -192,-97 -228,-235 -19,-74 -20,-109 -20,-1097 0,-959 1,-1026 19,-1096 35,-142 130,-234 265,-257 190,-32 345,68 389,252 15,63 17,169 17,1102 0,1048 -1,1077 -37,1163 -18,42 -74,119 -87,120 -6,0 -20,9 -32,21 -15,14 -41,22 -83,26 -42,4 -61,10 -61,19 0,19 -76,19 -83,0 z" />
        <path
           id="pKcB7lPXT"
           d="m 1975,20449 c -77,-7 -143,-45 -188,-107 -79,-112 -76,-63 -77,-1219 0,-1129 -1,-1119 62,-1216 123,-192 432,-191 551,2 66,105 65,94 62,1236 -3,1122 -1,1087 -64,1179 -38,55 -113,113 -156,120 -55,9 -129,11 -190,5 z" />
        <path
           id="pmFZ9PIWZ"
           d="m 11500,20446 c -95,-25 -183,-112 -212,-209 -10,-33 -13,-280 -13,-1122 0,-842 3,-1089 13,-1122 7,-23 27,-63 45,-90 127,-184 402,-188 538,-8 71,94 69,65 69,1217 0,721 -3,1041 -11,1087 -23,132 -123,233 -247,251 -86,12 -126,12 -182,-4 z" />
        <path
           id="pG2TzUhxc"
           d="m 525,20429 c -80,-43 -136,-115 -160,-205 -23,-88 -23,-2131 0,-2219 33,-124 129,-213 257,-236 184,-33 349,78 384,260 19,97 19,2076 0,2174 -17,86 -68,163 -139,209 -50,32 -54,33 -177,36 -112,3 -129,1 -165,-19 z" />
        <path
           id="pEz3jP1Tu"
           d="m 585,17050 c -125,-16 -260,-81 -357,-169 -120,-111 -183,-231 -199,-385 -5,-50 -14,-100 -20,-111 -6,-13 -8,-262 -6,-695 3,-629 5,-683 24,-791 47,-264 205,-443 467,-527 l 81,-26 445,-1 c 438,0 446,0 525,23 223,66 387,224 463,447 l 27,80 v 805 805 l -22,69 c -76,229 -236,388 -461,459 -63,19 -93,21 -487,23 -231,1 -447,-2 -480,-6 z m 785,-1350 v -690 l -342,2 -343,3 -3,688 -2,687 h 345 345 z" />
        <path
           id="p1Dm943qPu"
           d="m 2994,17045 c -116,-25 -208,-116 -241,-238 -15,-56 -17,-161 -20,-1073 -3,-1135 -3,-1131 63,-1237 122,-195 421,-197 549,-4 68,102 66,68 63,1235 -3,972 -4,1051 -21,1099 -37,109 -133,196 -240,219 -74,16 -76,16 -153,-1 z" />
        <path
           id="p7pTVQYfN"
           d="m 4360,17046 c -125,-28 -217,-125 -245,-256 -13,-61 -15,-220 -15,-1088 0,-1121 -1,-1107 61,-1203 155,-243 530,-180 595,99 18,74 20,2121 3,2201 -25,120 -130,222 -253,248 -71,15 -74,15 -146,-1 z" />
        <path
           id="p11SIQJykc"
           d="m 6358,17049 c -103,-11 -249,-58 -357,-115 -278,-146 -487,-452 -522,-764 -12,-115 -12,-6287 0,-6397 45,-381 326,-722 691,-838 69,-21 250,-54 308,-55 9,0 12,-185 12,-892 0,-974 6,-1159 50,-1453 159,-1071 801,-2039 1740,-2619 165,-102 451,-242 625,-306 77,-28 156,-57 177,-65 20,-8 126,-36 235,-64 629,-157 1244,-156 1866,4 943,243 1774,864 2266,1694 217,366 338,667 449,1121 34,138 71,421 82,625 5,105 10,587 10,1072 v 881 l 48,6 c 26,3 74,8 107,12 155,17 352,104 493,219 194,158 334,412 363,658 13,112 13,6294 -1,6402 -30,248 -169,495 -369,656 -152,123 -334,199 -522,219 -115,12 -7637,11 -7751,-1 z m 7684,-711 c 68,-15 159,-76 196,-131 65,-96 74,-160 70,-517 l -3,-295 -710,-6 c -763,-6 -762,-5 -840,-59 -77,-53 -118,-115 -141,-210 -47,-198 46,-392 218,-453 23,-8 246,-13 753,-17 l 720,-5 v -650 -650 l -720,-5 c -396,-3 -731,-10 -745,-14 -14,-5 -51,-24 -82,-43 -204,-125 -210,-483 -11,-618 90,-61 66,-59 843,-65 l 715,-5 3,-477 2,-478 h -669 c -759,0 -790,-2 -887,-67 -159,-105 -202,-359 -90,-528 41,-62 117,-117 186,-137 33,-9 232,-13 750,-18 l 705,-5 3,-469 c 3,-535 -2,-579 -64,-674 -42,-63 -119,-117 -195,-137 -78,-21 -7536,-22 -7616,-2 -77,20 -148,71 -194,138 -66,97 -70,139 -67,680 l 3,464 705,5 c 518,5 717,9 750,18 25,7 69,28 97,48 201,132 202,487 2,614 -103,66 -73,64 -849,70 l -705,5 v 475 475 l 715,5 c 550,5 724,9 754,19 176,58 267,246 222,457 -25,119 -126,221 -245,250 -44,10 -208,13 -748,14 h -693 l -5,23 c -3,12 -4,306 -3,652 l 3,630 720,5 c 494,4 730,9 751,17 116,41 203,147 224,270 36,206 -62,384 -240,437 -22,6 -297,12 -745,16 l -710,5 -3,294 c -3,347 7,423 63,508 41,62 126,123 194,139 68,17 7538,19 7613,2 z M 11950,7968 c -1,-836 -2,-926 -20,-1073 -30,-254 -88,-419 -243,-691 -19,-34 -80,-116 -137,-184 -214,-257 -485,-439 -805,-539 -140,-43 -182,-52 -332,-67 -164,-17 -180,-17 -344,0 -148,15 -194,24 -333,67 -96,30 -193,67 -241,93 -44,24 -109,60 -144,79 -58,31 -156,106 -289,220 -24,21 -90,94 -145,162 -208,254 -329,540 -367,865 -18,152 -20,239 -20,1073 v 907 h 1710 1710 z M 7823,7843 c 3,-966 4,-1002 25,-1125 69,-411 213,-748 464,-1087 91,-122 324,-355 453,-452 178,-134 406,-261 610,-337 434,-164 966,-196 1435,-86 151,35 214,54 280,82 14,6 36,14 50,18 47,13 264,121 366,181 160,95 297,205 454,362 346,347 564,756 649,1216 11,61 23,124 27,140 4,17 10,491 13,1055 l 6,1025 313,3 313,2 -3,-992 -4,-993 -28,-170 c -49,-305 -131,-576 -254,-840 -209,-448 -540,-859 -924,-1147 -110,-83 -135,-100 -304,-206 -72,-45 -350,-181 -429,-210 -16,-6 -73,-26 -125,-46 -109,-40 -357,-101 -445,-111 -33,-3 -107,-16 -165,-27 -90,-19 -141,-22 -355,-22 -223,0 -270,3 -430,28 -99,15 -183,30 -187,32 -3,2 -26,8 -50,13 -83,17 -234,60 -303,86 -38,15 -81,30 -95,35 -118,37 -358,156 -517,256 -511,319 -908,758 -1160,1285 -64,133 -155,372 -183,479 -6,25 -15,59 -20,75 -20,69 -50,219 -71,350 -22,137 -23,160 -27,1133 l -3,992 h 310 310 z" />
        <path
           id="pXU4GBnvV"
           d="m 9765,15380 c -140,-19 -269,-87 -381,-198 -58,-58 -84,-93 -119,-165 -74,-150 -75,-157 -75,-788 0,-720 15,-646 -192,-936 -95,-134 -117,-171 -173,-307 -57,-137 -67,-172 -90,-306 -27,-164 -30,-270 -15,-465 39,-494 380,-964 860,-1185 151,-69 261,-97 475,-121 168,-19 202,-20 295,-9 259,29 287,36 515,122 45,16 142,69 220,119 231,146 386,318 549,607 4,7 31,84 60,170 49,144 54,171 71,332 16,163 16,185 1,318 -30,272 -129,528 -279,724 -210,274 -196,211 -197,933 0,618 -2,638 -62,768 -62,135 -179,256 -313,321 -140,69 -141,70 -640,72 -247,1 -477,-2 -510,-6 z m 786,-1320 c 4,-322 11,-605 16,-630 42,-198 107,-335 240,-508 113,-146 155,-218 191,-326 24,-71 27,-96 26,-196 -1,-102 -5,-125 -33,-205 -77,-218 -239,-398 -436,-483 -135,-58 -179,-67 -320,-66 -120,1 -136,4 -215,33 -134,50 -179,75 -265,143 -117,94 -199,205 -251,344 -55,144 -63,224 -36,355 27,131 81,237 201,396 155,205 227,370 251,579 5,50 10,325 10,622 v 532 l 308,-2 307,-3 z" />
        <path
           id="pD58VsNmD"
           d="m 15968,17046 c -116,-25 -212,-119 -244,-238 -20,-77 -20,-2124 0,-2209 66,-276 435,-341 592,-104 65,97 63,70 64,1202 0,1124 0,1121 -59,1206 -58,84 -126,130 -215,146 -69,13 -64,13 -138,-3 z" />
        <path
           id="pc1NmCN15"
           d="m 17330,17046 c -122,-27 -213,-122 -244,-256 -23,-98 -23,-2082 0,-2180 42,-182 207,-289 392,-255 127,24 226,127 253,263 19,98 20,2080 1,2167 -30,133 -133,240 -256,264 -69,13 -73,13 -146,-3 z" />
        <path
           id="p1D64NSIaR"
           d="m 19020,17051 c -258,-36 -467,-216 -553,-477 l -22,-69 v -795 c 0,-747 1,-799 19,-865 60,-225 224,-395 456,-472 l 85,-28 455,1 h 455 l 77,26 c 181,60 322,179 401,336 38,76 45,101 56,192 6,58 16,107 21,108 14,5 14,1379 0,1384 -5,2 -12,37 -16,78 -13,163 -65,272 -186,392 -82,81 -145,120 -273,166 l -70,26 -425,2 c -234,1 -450,-1 -480,-5 z m 780,-1351 v -690 l -342,2 -343,3 -3,688 -2,687 h 345 345 z" />
        <path
           id="p10jg4GBrs"
           d="m 2319,13290 c -139,-32 -227,-125 -254,-268 -23,-118 -22,-2042 1,-2152 23,-113 61,-171 150,-227 142,-91 349,-51 441,85 73,106 73,104 70,1262 -4,1126 0,1070 -70,1174 -43,63 -118,110 -207,129 -56,11 -74,11 -131,-3 z" />
        <path
           id="p8bqdvPOG"
           d="m 253,13290 c -23,-5 -66,-25 -96,-45 -81,-54 -117,-115 -132,-227 -3,-27 -10,-48 -16,-48 -13,0 -12,-2057 1,-2062 6,-2 15,-32 21,-68 26,-164 197,-274 372,-240 87,16 173,73 215,143 62,103 62,88 62,1202 0,1135 1,1113 -66,1211 -80,116 -208,164 -361,134 z" />
        <path
           id="p10XxeWPwc"
           d="m 4345,13287 c -115,-30 -207,-131 -231,-255 -20,-100 -20,-2066 0,-2169 26,-140 123,-236 265,-263 60,-11 77,-11 137,4 121,30 209,116 239,234 21,79 22,2126 2,2213 -22,93 -89,174 -181,218 -55,27 -162,35 -231,18 z" />
        <path
           id="p5jGk86Zs"
           d="m 15948,13285 c -111,-30 -203,-129 -227,-243 -8,-37 -11,-378 -11,-1098 0,-1159 -2,-1123 65,-1215 43,-60 110,-105 184,-124 73,-19 101,-19 170,0 121,32 209,127 236,256 21,100 22,2079 1,2177 -41,189 -228,300 -418,247 z" />
        <path
           id="p168XjNvJU"
           d="m 18006,13289 c -116,-27 -211,-126 -235,-244 -9,-46 -11,-318 -9,-1135 3,-960 5,-1079 19,-1110 70,-153 215,-230 374,-200 132,25 222,115 256,257 17,73 18,140 19,1084 0,1128 1,1113 -67,1215 -75,113 -217,166 -357,133 z" />
        <path
           id="pbhjpzx7T"
           d="m 20054,13290 c -63,-13 -149,-73 -189,-133 -65,-99 -65,-92 -65,-1214 0,-1118 -1,-1108 64,-1204 100,-149 314,-191 458,-90 77,54 119,117 125,192 4,38 11,63 19,66 12,4 14,179 14,1040 0,594 -4,1032 -9,1029 -5,-3 -13,26 -19,64 -14,91 -50,149 -125,201 -79,54 -166,70 -273,49 z" />
        <path
           id="pVCtXLE7R"
           d="M 255,9876 C 134,9847 30,9730 30,9625 30,9594 25,9578 15,9574 2,9569 0,9445 0,8541 0,7912 4,7510 9,7504 c 6,-5 14,-38 20,-73 13,-80 55,-147 119,-189 74,-48 100,-55 197,-56 86,-1 93,1 157,37 53,30 77,51 108,96 72,107 70,76 70,1212 0,1129 1,1115 -67,1213 -44,64 -131,122 -202,136 -66,12 -92,12 -156,-4 z" />
        <path
           id="p18LzJN7e5"
           d="m 1623,9876 c -79,-19 -155,-74 -191,-138 -64,-112 -62,-72 -62,-1201 0,-1140 -2,-1112 65,-1214 64,-97 191,-153 314,-138 101,13 175,57 229,137 63,93 61,68 62,1213 0,885 -3,1049 -15,1103 -28,119 -133,219 -254,242 -66,12 -82,12 -148,-4 z" />
        <path
           id="papo0SwGc"
           d="m 3291,9879 c -289,-58 -493,-268 -542,-558 -13,-77 -19,-1322 -7,-1495 24,-359 259,-606 613,-646 117,-13 683,-13 800,0 284,32 490,196 582,464 l 28,81 v 810 810 l -27,75 c -42,118 -86,189 -168,270 -82,82 -166,135 -277,172 -66,22 -79,22 -513,24 -245,1 -465,-2 -489,-7 z m 804,-1346 v -688 l -342,-3 -343,-2 v 689 c 0,449 3,690 10,693 5,2 160,2 342,1 l 333,-3 z" />
        <path
           id="p19J2jkj3j"
           d="m 16261,9879 c -269,-54 -464,-240 -531,-506 -20,-78 -21,-103 -17,-869 3,-778 3,-790 24,-851 66,-188 178,-320 338,-400 144,-72 229,-83 655,-83 331,0 444,8 548,40 240,74 425,300 458,560 9,73 11,1222 3,1420 -8,171 -26,251 -82,350 -84,152 -207,255 -380,318 l -72,26 -450,2 c -247,1 -470,-2 -494,-7 z m 804,-1346 v -688 h -343 -343 l 1,684 c 0,376 2,686 4,690 2,3 156,5 343,4 l 338,-2 z" />
        <path
           id="pb6nN41ht"
           d="m 18697,9879 c -121,-29 -221,-132 -245,-253 -18,-91 -16,-2109 2,-2193 26,-123 133,-224 258,-245 186,-31 341,72 382,255 23,100 24,2068 1,2176 -39,187 -216,303 -398,260 z" />
        <path
           id="p5BslXBuF"
           d="m 20061,9879 c -66,-13 -155,-75 -196,-137 -66,-97 -65,-87 -65,-1214 0,-1113 0,-1104 62,-1201 91,-142 301,-188 448,-98 80,49 127,116 136,194 4,32 13,64 20,72 21,20 21,2070 0,2078 -8,3 -15,28 -19,66 -6,76 -47,137 -126,192 -77,52 -160,68 -260,48 z" />
        <path
           id="pRqBb8zp5"
           d="M 605,6131 C 453,6111 321,6049 216,5946 98,5830 38,5706 26,5551 22,5510 15,5471 10,5465 -5,5447 2,4109 17,4050 c 7,-25 16,-79 22,-120 15,-110 66,-204 166,-306 89,-90 164,-134 295,-176 74,-23 81,-23 530,-23 445,0 457,1 524,22 228,76 383,231 459,459 l 22,69 v 805 805 l -23,70 c -74,226 -238,385 -469,457 -64,20 -94,21 -473,24 -223,1 -432,-1 -465,-5 z M 1370,4780 V 4090 H 1025 680 v 690 690 h 345 345 z" />
        <path
           id="pc4HVe6Vy"
           d="m 3000,6124 c -121,-27 -216,-119 -247,-241 -12,-48 -16,-226 -20,-1060 -5,-901 -3,-1012 11,-1100 21,-120 58,-184 141,-239 153,-102 362,-64 459,82 64,97 60,29 64,1181 3,1172 5,1138 -63,1240 -45,68 -124,121 -207,139 -35,7 -65,13 -68,13 -3,-1 -34,-7 -70,-15 z" />
        <path
           id="p3yY1ePbn"
           d="m 4367,6125 c -77,-17 -158,-72 -202,-138 -66,-99 -65,-77 -65,-1209 0,-1090 1,-1114 50,-1194 24,-38 81,-91 130,-121 54,-32 162,-46 232,-30 120,29 220,129 246,245 18,81 17,2126 -1,2202 -30,125 -133,222 -261,247 -39,7 -71,13 -71,12 0,-1 -26,-7 -58,-14 z" />
        <path
           id="pwrBWfnJy"
           d="m 5735,6126 c -119,-24 -224,-126 -252,-246 -18,-77 -19,-2122 -1,-2202 62,-274 436,-343 594,-110 65,97 64,78 64,1215 -1,819 -3,1035 -14,1085 -28,129 -129,230 -258,258 -35,7 -65,13 -68,12 -3,0 -32,-6 -65,-12 z" />
        <path
           id="p4yBSrkBQ"
           d="m 14607,6125 c -77,-17 -158,-72 -202,-138 -66,-99 -65,-77 -65,-1209 0,-1090 1,-1114 50,-1194 24,-38 81,-91 130,-121 54,-32 162,-46 232,-30 120,29 220,129 246,245 18,81 17,2126 -1,2202 -30,125 -133,222 -261,247 -39,7 -71,13 -71,12 0,-1 -26,-7 -58,-14 z" />
        <path
           id="pjwJBfpXZ"
           d="m 15975,6126 c -120,-24 -223,-123 -251,-243 -21,-88 -20,-2134 1,-2212 44,-168 204,-269 378,-239 115,19 229,120 259,228 18,66 24,2084 7,2188 -23,142 -124,248 -261,278 -35,7 -65,13 -68,12 -3,0 -32,-6 -65,-12 z" />
        <path
           id="puZUMz1l4"
           d="m 17340,6127 c -119,-22 -225,-129 -254,-257 -23,-101 -24,-2071 -1,-2179 19,-93 63,-158 140,-209 193,-129 446,-30 502,196 16,61 17,164 17,1092 0,1145 2,1119 -65,1218 -51,77 -118,120 -211,138 -40,8 -73,13 -73,13 0,-1 -25,-6 -55,-12 z" />
        <path
           id="pejhakxdo"
           d="m 19035,6131 c -266,-33 -490,-223 -568,-482 -22,-74 -22,-78 -22,-874 v -800 l 23,-73 c 36,-112 87,-197 172,-282 83,-83 168,-134 290,-172 74,-23 81,-23 530,-23 452,0 456,0 528,24 116,37 198,88 287,176 98,98 149,191 170,310 8,44 14,97 15,118 0,20 5,37 10,37 14,0 14,1377 0,1382 -6,2 -13,26 -15,53 -3,28 -8,74 -11,103 -9,90 -81,218 -174,310 -86,86 -153,126 -275,168 l -80,27 -410,2 c -225,2 -437,0 -470,-4 z m 765,-1351 v -690 h -345 -345 v 690 690 h 345 345 z" />
        <path
           id="p9hJecHeZ"
           d="M 605,2716 C 483,2693 390,2599 357,2468 342,2407 340,2300 340,1366 340,254 339,267 391,170 432,93 500,44 588,29 c 34,-6 62,-15 62,-20 0,-5 18,-9 40,-9 27,0 40,4 40,14 0,9 19,15 56,20 107,12 185,93 223,229 21,72 21,93 21,1102 0,1009 0,1030 -21,1102 -11,41 -33,93 -49,116 -27,39 -90,97 -106,97 -4,0 -15,6 -23,13 -14,12 -134,39 -157,36 -5,-1 -36,-7 -69,-13 z" />
        <path
           id="p10amr0A9F"
           d="m 2335,2719 c -166,-13 -304,-78 -424,-199 -82,-83 -128,-158 -170,-280 l -25,-75 -4,-734 c -2,-450 1,-765 7,-815 20,-168 80,-294 197,-411 114,-115 207,-159 369,-176 55,-6 102,-14 103,-20 2,-5 143,-9 352,-9 300,0 349,2 354,15 4,11 21,15 67,15 241,0 475,196 561,470 l 23,75 v 790 790 l -23,75 c -39,123 -88,207 -172,290 -104,105 -207,159 -370,196 -41,10 -729,12 -845,3 z m 743,-1357 2,-682 -345,2 -345,3 -3,683 -2,682 345,-2 345,-3 z" />
        <path
           id="pIu7JXkcS"
           d="m 4705,2716 c -33,-6 -74,-19 -90,-28 -46,-24 -107,-87 -140,-143 l -30,-50 V 1365 234 l 44,-67 c 55,-85 113,-125 198,-140 35,-5 63,-14 63,-18 0,-16 58,-10 64,6 4,10 19,15 49,15 90,0 172,64 230,180 l 22,45 3,1030 c 2,567 0,1071 -3,1122 -6,83 -11,99 -45,155 -44,74 -134,141 -202,152 -87,13 -104,13 -163,2 z" />
        <path
           id="pDbIYjY73"
           d="m 6430,2719 c -277,-23 -491,-192 -587,-464 l -28,-80 V 1370 565 l 24,-75 c 57,-180 169,-317 331,-402 65,-34 132,-52 243,-63 31,-4 57,-11 57,-16 0,-14 697,-12 702,2 2,7 44,15 103,20 55,4 116,14 135,21 185,69 342,236 400,427 37,118 42,238 38,968 -5,778 -2,741 -77,898 -45,95 -103,168 -180,228 -103,80 -212,128 -329,143 -67,9 -733,11 -832,3 z M 7170,1365 V 680 h -345 -345 v 685 685 h 345 345 z" />
        <path
           id="p1BIJEaekC"
           d="m 10165,2717 c -33,-7 -80,-25 -104,-41 -49,-31 -101,-84 -101,-102 0,-7 -6,-14 -13,-17 -8,-3 -19,-27 -25,-54 -6,-26 -15,-66 -21,-88 -7,-27 -11,-377 -11,-1048 0,-991 0,-1009 21,-1092 22,-85 67,-169 103,-189 11,-6 28,-18 38,-27 20,-18 84,-39 116,-39 11,0 24,-4 27,-10 10,-16 85,-12 91,5 4,10 20,15 46,15 40,0 108,25 108,40 0,4 9,10 19,13 33,8 88,106 110,194 21,79 21,105 21,1088 0,982 -1,1009 -21,1094 -11,47 -26,91 -32,96 -7,6 -19,23 -27,38 -8,16 -28,38 -45,50 -16,12 -31,25 -33,29 -2,4 -9,8 -17,8 -7,0 -18,6 -24,14 -6,7 -32,16 -59,19 -26,3 -60,8 -77,11 -16,2 -57,-1 -90,-7 z" />
        <path
           id="pMVKlRxbi"
           d="m 11895,2719 c -101,-8 -182,-31 -265,-76 -163,-88 -266,-213 -328,-398 l -27,-80 V 1365 565 l 22,-69 c 41,-123 91,-205 178,-291 120,-119 217,-164 388,-180 43,-4 80,-11 83,-16 3,-5 160,-9 350,-9 294,0 348,2 360,15 10,10 35,15 71,15 274,0 537,268 574,584 12,106 12,1398 -1,1501 -38,325 -290,577 -600,601 -106,8 -709,10 -805,3 z m 739,-1354 -1,-680 -346,-3 -347,-2 v 685 685 l 348,-2 347,-3 z" />
        <path
           id="prX4lzg8J"
           d="m 14262,2719 c -59,-10 -160,-69 -186,-109 -9,-14 -26,-40 -38,-59 -42,-65 -43,-121 -38,-1246 l 5,-1070 40,-65 c 53,-85 114,-128 200,-143 36,-6 65,-15 65,-19 0,-14 58,-9 63,6 3,8 26,15 60,18 68,6 132,45 177,110 70,102 65,15 65,1229 v 1095 l -35,69 c -56,110 -118,158 -235,182 -69,14 -72,14 -143,2 z" />
        <path
           id="p1FqXR2Lr7"
           d="m 15990,2719 c -237,-20 -442,-155 -545,-359 -43,-86 -63,-158 -75,-271 -13,-122 -13,-1326 0,-1448 27,-257 149,-445 361,-556 63,-33 196,-65 270,-65 16,0 29,-4 29,-10 0,-15 697,-14 702,1 2,7 42,15 93,19 114,10 135,15 219,57 48,24 93,59 150,116 91,91 141,171 178,289 l 23,73 v 795 c 0,746 -1,799 -19,865 -62,230 -268,428 -499,480 -61,13 -142,17 -443,18 -203,1 -403,-1 -444,-4 z m 740,-1354 V 680 h -345 -345 v 685 685 h 345 345 z" />
        <path
           id="pR8vwakMS"
           d="m 8778,2705 c -62,-17 -134,-69 -175,-127 -63,-88 -63,-71 -63,-1207 0,-718 3,-1044 11,-1090 18,-103 81,-187 177,-236 26,-13 59,-16 147,-16 62,1 122,4 132,8 62,24 131,90 165,158 38,76 39,119 36,1205 -3,1047 -3,1055 -24,1106 -68,166 -234,247 -406,199 z" />
        <path
           id="pbNNXiFKE"
           d="m 18340,2706 c -119,-34 -206,-130 -232,-256 -19,-96 -19,-2075 1,-2172 16,-83 65,-156 136,-207 l 49,-36 h 136 c 133,0 136,0 185,31 68,42 121,122 140,214 23,108 22,2084 -1,2180 -44,188 -229,297 -414,246 z" />
        <path
           id="p17cfx0EWV"
           d="m 19704,2705 c -117,-32 -206,-130 -230,-253 -20,-104 -20,-2079 0,-2176 19,-89 67,-162 137,-207 52,-33 56,-34 176,-37 101,-3 128,-1 160,14 52,25 124,99 153,159 l 25,50 3,1070 c 2,766 0,1087 -8,1130 -24,124 -129,232 -250,255 -68,13 -103,12 -166,-5 z" />
      </g>
    </g>
    <g
       id="l5IDNV3gkJ9y8Zy77QTsNjP"
       fill="#febf07">
      <g
         id="g2">
        <path
           id="p1CVsVYky3"
           d="m 6399,16366 c -68,-16 -153,-77 -194,-139 -57,-86 -66,-158 -63,-538 l 3,-324 710,-5 c 448,-4 723,-10 745,-16 170,-51 273,-223 237,-395 -23,-111 -113,-214 -221,-252 -21,-8 -257,-13 -751,-17 l -720,-5 -3,-660 c -1,-363 0,-670 3,-682 l 5,-23 h 693 c 540,-1 704,-4 748,-14 122,-29 225,-138 248,-263 31,-164 -68,-332 -225,-384 -30,-10 -204,-14 -754,-19 l -715,-5 -3,-499 c -1,-275 2,-504 6,-508 5,-5 310,-8 678,-8 745,0 763,-1 864,-64 158,-97 202,-313 96,-471 -41,-62 -117,-117 -186,-137 -33,-9 -232,-13 -750,-18 l -705,-5 -3,-494 c -3,-574 1,-612 67,-710 46,-67 117,-118 194,-138 42,-11 691,-13 3628,-13 h 3578 l 32,98 32,97 3,565 c 2,311 1,573 -2,583 -5,16 -31,17 -354,17 -396,0 -447,6 -538,66 -71,47 -124,129 -140,217 -24,132 32,267 142,340 88,58 160,67 552,67 h 334 l 1,88 c 7,396 8,573 2,740 l -6,192 h -351 c -400,0 -452,7 -536,63 -106,72 -163,208 -140,337 25,133 128,241 258,269 33,7 186,11 411,11 h 359 l 7,208 c 4,114 5,413 2,665 -4,284 -2,457 4,457 5,0 9,9 9,20 0,20 -7,20 -372,20 -414,0 -451,4 -536,60 -105,68 -167,217 -141,339 22,100 66,167 144,221 76,52 144,60 536,60 h 349 l 2,238 c 6,519 3,591 -22,666 -12,38 -32,79 -43,92 l -21,24 -3570,-1 c -2619,-1 -3583,-4 -3617,-13 z m 4356,-1030 c 196,-56 361,-195 443,-373 60,-130 62,-150 62,-768 1,-722 -13,-659 197,-933 148,-193 249,-453 278,-714 13,-123 13,-146 -4,-298 -16,-145 -25,-183 -69,-313 -28,-81 -54,-153 -58,-160 -99,-176 -176,-281 -288,-395 -102,-103 -143,-136 -261,-211 -78,-50 -175,-103 -220,-119 -229,-86 -221,-84 -468,-117 -100,-13 -124,-13 -290,5 -205,23 -317,51 -467,120 -331,153 -601,424 -745,749 -77,174 -105,289 -117,491 -11,170 -11,180 15,338 25,147 33,177 92,318 56,136 78,173 173,307 207,290 192,216 192,936 0,631 1,638 75,788 94,190 292,334 500,363 33,4 249,7 480,6 364,-2 428,-5 480,-20 z" />
      </g>
    </g>
    <g
       id="l4wwcyOX82ABte54QV67Av8"
       fill="#34424a">
      <g
         id="g3">
        <path
           id="p4G1s4Fe8"
           d="m 9900,14148 c 0,-297 -5,-572 -10,-622 -24,-209 -96,-374 -251,-579 -170,-224 -227,-383 -215,-593 12,-211 124,-420 301,-562 85,-68 130,-92 265,-143 82,-31 90,-32 245,-33 174,-1 209,6 350,66 197,85 359,264 436,483 30,85 32,99 33,235 1,132 -1,152 -26,226 -36,108 -78,180 -191,326 -133,173 -198,310 -240,508 -5,25 -12,308 -16,630 l -6,585 -337,3 -338,2 z" />
        <path
           id="pI3Yu66X0"
           d="m 12627,8863 c -4,-3 -7,-430 -7,-947 0,-554 -4,-988 -10,-1056 -21,-235 -74,-444 -178,-701 -6,-15 -8,-29 -5,-32 9,-9 -46,-164 -108,-306 -165,-373 -414,-747 -677,-1014 -229,-232 -539,-465 -837,-629 -70,-38 -95,-57 -95,-71 0,-19 5,-19 71,-13 94,8 339,69 459,112 52,20 109,40 125,46 79,29 357,165 429,210 169,106 194,123 304,206 384,288 715,699 924,1147 123,264 205,535 254,840 l 28,170 4,1023 3,1022 h -339 c -186,0 -342,-3 -345,-7 z" />
      </g>
    </g>
    <g
       id="l53tYvTk9FgP7cTg5JIetat"
       fill="#5f7b8a">
      <g
         id="g4">
        <path
           id="pA1gRB2J0"
           d="m 7172,7848 c 4,-1004 5,-1026 27,-1163 21,-131 51,-281 71,-350 5,-16 14,-50 20,-75 28,-107 119,-346 183,-479 252,-527 649,-966 1160,-1285 159,-100 399,-219 517,-256 14,-5 57,-20 95,-35 69,-26 220,-69 303,-86 24,-5 47,-11 50,-13 4,-2 88,-17 187,-32 166,-26 202,-28 465,-27 358,0 423,12 581,99 413,229 771,523 1034,849 188,234 361,518 484,796 59,136 144,381 156,454 4,22 22,97 41,166 19,70 34,140 33,155 0,16 -15,-25 -34,-91 -109,-394 -317,-747 -615,-1046 -157,-157 -294,-267 -454,-362 -102,-60 -319,-168 -366,-181 -14,-4 -36,-12 -50,-18 -66,-28 -129,-47 -280,-82 -407,-95 -808,-84 -1225,35 -245,70 -535,218 -760,388 -129,97 -362,330 -453,452 -251,339 -395,676 -464,1087 -21,123 -22,159 -25,1125 l -4,997 h -340 -340 z" />
      </g>
    </g>
    <g
       id="l0WvFrdCD0jklvkU3cGWrB"
       fill="#ff9801">
      <g
         id="g5">
        <path
           id="pujJbxMkD"
           d="m 13550,16374 c 0,-13 35,-64 43,-64 5,0 7,-7 3,-15 -3,-8 -1,-15 5,-15 6,0 9,-7 5,-15 -3,-8 -1,-15 5,-15 6,0 9,-7 5,-15 -3,-8 -1,-15 5,-15 6,0 9,-7 5,-15 -3,-8 -1,-15 5,-15 5,0 9,-19 9,-42 0,-24 -1,-211 -1,-416 v -372 l 348,2 348,3 3,325 c 4,389 -4,450 -70,547 -37,55 -128,116 -196,131 -55,12 -522,18 -522,6 z" />
        <path
           id="p1Ch7NK6dD"
           d="m 13654,14672 c -9,-5 -12,-183 -11,-673 0,-366 -3,-671 -7,-678 -6,-8 78,-11 346,-9 l 353,3 v 680 680 l -335,2 c -184,2 -340,0 -346,-5 z" />
        <path
           id="pNcljq4rd"
           d="m 13635,12610 c 4,-12 7,-241 6,-510 v -490 h 350 349 l -2,508 -3,507 -353,3 c -353,2 -353,2 -347,-18 z" />
        <path
           id="pJbPRnWcL"
           d="m 13641,10368 c -1,-304 -2,-562 -2,-573 -2,-26 -48,-172 -66,-207 l -14,-28 h 233 c 263,0 309,8 393,64 73,48 120,121 140,217 13,64 15,154 13,575 l -3,499 -346,3 -347,2 z" />
      </g>
    </g>
  </g>
  <text
     xml:space="preserve"
     transform="matrix(53.795831,0,0,53.795831,-1328.7013,-94428.564)"
     id="text5"
     style="font-size:192px;white-space:pre;shape-inside:url(#rect5);display:inline;fill:#248bc5;fill-opacity:1;stroke:none;stroke-width:12"><tspan
       x="36.759766"
       y="2312.8484"
       id="tspan2"><tspan
         style="font-family:Rubik;-inkscape-font-specification:Rubik"
         id="tspan1">JAM</tspan></tspan></text>
</svg>
